<svg width="22" height="22" viewBox="0 0 22 22" fill="none" xmlns="http://www.w3.org/2000/svg">
<path fill-rule="evenodd" clip-rule="evenodd" d="M6.93615 0.928899C8.01705 0.879709 8.36243 0.867676 11.1145 0.867676H11.1113C13.8643 0.867676 14.2084 0.879709 15.2893 0.928899C16.3681 0.978299 17.1048 1.14909 17.7509 1.39968C18.418 1.6583 18.9816 2.00452 19.5453 2.56819C20.109 3.13144 20.4552 3.69681 20.7149 4.36329C20.964 5.00761 21.135 5.74397 21.1857 6.82276C21.2342 7.90366 21.2469 8.24904 21.2469 11.0011C21.2469 13.7532 21.2342 14.0977 21.1857 15.1786C21.135 16.257 20.964 16.9936 20.7149 17.6381C20.4552 18.3044 20.109 18.8697 19.5453 19.433C18.9823 19.9967 18.4178 20.3437 17.7515 20.6025C17.1067 20.8531 16.3695 21.0239 15.2908 21.0733C14.2099 21.1225 13.8655 21.1346 11.1132 21.1346C8.36138 21.1346 8.01621 21.1225 6.93531 21.0733C5.85673 21.0239 5.12016 20.8531 4.47542 20.6025C3.80935 20.3437 3.24399 19.9967 2.68095 19.433C2.11749 18.8697 1.77127 18.3044 1.51223 17.6379C1.26185 16.9936 1.09106 16.2572 1.04145 15.1784C0.992469 14.0975 0.980225 13.7532 0.980225 11.0011C0.980225 8.24904 0.992891 7.90345 1.04124 6.82255C1.08979 5.74418 1.26079 5.00761 1.51202 4.36308C1.77169 3.69681 2.11791 3.13144 2.68159 2.56819C3.24484 2.00473 3.8102 1.65851 4.47668 1.39968C5.121 1.14909 5.85736 0.978299 6.93615 0.928899ZM10.7767 2.69311C10.5718 2.69302 10.3819 2.69293 10.2054 2.69321V2.69067C8.31676 2.69278 7.95449 2.70545 7.01968 2.74767C6.03167 2.79306 5.49523 2.95773 5.13803 3.09707C4.66514 3.28116 4.32736 3.50072 3.97269 3.85539C3.61802 4.21006 3.39804 4.54784 3.21437 5.02073C3.07566 5.37793 2.91057 5.91416 2.8654 6.90217C2.81684 7.97041 2.80713 8.28961 2.80713 10.9957C2.80713 13.7017 2.81684 14.0226 2.8654 15.0908C2.91036 16.0788 3.07566 16.6151 3.21437 16.9719C3.39846 17.445 3.61802 17.7819 3.97269 18.1366C4.32736 18.4912 4.66514 18.7108 5.13803 18.8945C5.49545 19.0332 6.03167 19.1983 7.01968 19.2439C8.08792 19.2924 8.4086 19.303 11.1144 19.303C13.8201 19.303 14.141 19.2924 15.2092 19.2439C16.1972 19.1987 16.7339 19.034 17.0906 18.8947C17.5637 18.711 17.9005 18.4914 18.2551 18.1368C18.6098 17.7823 18.8298 17.4456 19.0135 16.9727C19.1522 16.6159 19.3172 16.0797 19.3624 15.0917C19.411 14.0234 19.4215 13.7026 19.4215 10.9982C19.4215 8.29383 19.411 7.97294 19.3624 6.90471C19.3175 5.9167 19.1522 5.38047 19.0135 5.02369C18.8294 4.55079 18.6098 4.21301 18.2551 3.85834C17.9007 3.50367 17.5635 3.28411 17.0906 3.10044C16.7334 2.96174 16.1972 2.79665 15.2092 2.75147C14.1407 2.70292 13.8201 2.69321 11.1144 2.69321L10.7767 2.69311ZM5.91052 11.0018C5.91052 8.12791 8.24058 5.79785 11.1145 5.79785C13.9883 5.79796 16.3176 8.12798 16.3176 11.0018C16.3176 13.8757 13.9884 16.2047 11.1145 16.2047C8.24058 16.2047 5.91052 13.8757 5.91052 11.0018ZM14.4924 11.0001C14.4924 9.13452 12.98 7.62231 11.1146 7.62231C9.24902 7.62231 7.73682 9.13452 7.73682 11.0001C7.73682 12.8655 9.24902 14.3779 11.1146 14.3779C12.98 14.3779 14.4924 12.8655 14.4924 11.0001ZM15.3077 5.59199C15.3077 4.92044 15.8524 4.3764 16.5237 4.3764V4.37598C17.195 4.37598 17.7397 4.92065 17.7397 5.59199C17.7397 6.26333 17.195 6.808 16.5237 6.808C15.8524 6.808 15.3077 6.26333 15.3077 5.59199Z" fill="#F5FDFF"/>
</svg>
