<svg width="12" height="20" viewBox="0 0 12 20" fill="none" xmlns="http://www.w3.org/2000/svg">
<path fill-rule="evenodd" clip-rule="evenodd" d="M5.7296 10.3063C8.53136 10.3063 10.8089 8.10751 10.8089 5.40447C10.8089 2.70056 8.53136 0.501221 5.7296 0.501221C2.92845 0.501221 0.650329 2.70056 0.650329 5.40447C0.650329 8.10751 2.92845 10.3063 5.7296 10.3063ZM5.72959 3.37451C6.88932 3.37451 7.83266 4.28481 7.83266 5.40428C7.83266 6.52287 6.88932 7.43376 5.72959 7.43376C4.57078 7.43376 3.62653 6.52287 3.62653 5.40428C3.62653 4.28481 4.57078 3.37451 5.72959 3.37451ZM10.747 13.1284C9.82854 13.6852 8.8314 14.0801 7.7975 14.3075L10.6369 17.0486C11.2186 17.6089 11.2186 18.519 10.6369 19.0799C10.0559 19.6408 9.11404 19.6408 8.53357 19.0799L5.74184 16.3862L2.95254 19.0799C2.6617 19.36 2.28059 19.5003 1.89949 19.5003C1.51899 19.5003 1.13849 19.36 0.847647 19.0799C0.266568 18.519 0.266568 17.6095 0.847039 17.0486L3.68679 14.3075C2.65288 14.0801 1.65575 13.6846 0.737327 13.1284C0.0422818 12.7054 -0.166505 11.8192 0.271431 11.1476C0.708152 10.4753 1.62657 10.2728 2.32283 10.6959C4.4022 11.9585 7.08087 11.9588 9.16145 10.6959C9.85771 10.2728 10.7758 10.4753 11.2135 11.1476C11.6514 11.8186 11.442 12.7054 10.747 13.1284Z" fill="#F5FDFF"/>
</svg>
