<svg width="20" height="16" viewBox="0 0 20 16" fill="none" xmlns="http://www.w3.org/2000/svg">
<path fill-rule="evenodd" clip-rule="evenodd" d="M9.91618 4.44383L9.95605 5.10127L9.29155 5.02077C6.87275 4.71217 4.75962 3.66563 2.96546 1.90798L2.08831 1.03586L1.86238 1.67989C1.38393 3.11553 1.68961 4.63167 2.68636 5.65138C3.21797 6.2149 3.09836 6.2954 2.18134 5.95997C1.86238 5.85264 1.58328 5.77213 1.5567 5.81238C1.46367 5.9063 1.78264 7.12727 2.03515 7.61029C2.38069 8.28115 3.08507 8.93859 3.85589 9.32769L4.50711 9.63629L3.73628 9.6497C2.99204 9.6497 2.96546 9.66312 3.0452 9.94488C3.311 10.817 4.36092 11.7428 5.53045 12.1453L6.35443 12.4271L5.63677 12.8564C4.57356 13.4736 3.32429 13.8225 2.07502 13.8493C1.47696 13.8627 0.985229 13.9164 0.985229 13.9566C0.985229 14.0908 2.60662 14.8422 3.55022 15.1373C6.38101 16.0095 9.74341 15.6338 12.2685 14.1445C14.0627 13.0845 15.8569 10.978 16.6941 8.93859C17.146 7.8518 17.5979 5.86605 17.5979 4.91343C17.5979 4.29624 17.6377 4.21574 18.382 3.47779C18.8206 3.04844 19.2325 2.57884 19.3123 2.44467C19.4452 2.18974 19.4319 2.18974 18.7541 2.41783C17.6244 2.82035 17.465 2.76668 18.0231 2.1629C18.4351 1.73355 18.9269 0.955356 18.9269 0.727264C18.9269 0.687012 18.7275 0.754098 18.5016 0.874853C18.2624 1.00903 17.7308 1.21028 17.3321 1.33104L16.6144 1.55913L15.9632 1.11636C15.6043 0.874853 15.0993 0.606509 14.8335 0.526006C14.1557 0.338165 13.1191 0.364999 12.5078 0.579675C10.8465 1.18345 9.79657 2.73984 9.91618 4.44383Z" fill="#F5FDFF"/>
</svg>
