<svg width="21" height="12" viewBox="0 0 21 12" fill="none" xmlns="http://www.w3.org/2000/svg">
<path fill-rule="evenodd" clip-rule="evenodd" d="M11.3654 11.6012C11.3654 11.6012 11.7312 11.5613 11.9185 11.3638C12.09 11.1828 12.0841 10.8413 12.0841 10.8413C12.0841 10.8413 12.0613 9.24655 12.8156 9.01109C13.559 8.77951 14.5136 10.5533 15.5266 11.2354C16.2919 11.7511 16.8727 11.6382 16.8727 11.6382L19.5798 11.6012C19.5798 11.6012 20.9953 11.5156 20.3243 10.4229C20.2688 10.3334 19.9327 9.61435 18.312 8.13733C16.614 6.59123 16.842 6.84129 18.886 4.16651C20.131 2.53771 20.6286 1.5433 20.4729 1.1181C20.3253 0.711384 19.4093 0.819388 19.4093 0.819388L16.3623 0.837875C16.3623 0.837875 16.1363 0.807712 15.9687 0.905985C15.8052 1.00231 15.6991 1.22708 15.6991 1.22708C15.6991 1.22708 15.2174 2.48711 14.5741 3.55936C13.217 5.82061 12.6748 5.94029 12.4528 5.80018C11.9364 5.47228 12.0652 4.48468 12.0652 3.78315C12.0652 1.59098 12.4042 0.677329 11.406 0.44089C11.075 0.362077 10.8311 0.310508 9.98361 0.301751C8.89621 0.291048 7.97634 0.305643 7.45495 0.555704C7.10801 0.722087 6.84037 1.09377 7.00393 1.11518C7.20515 1.14145 7.66112 1.23583 7.90299 1.55887C8.21523 1.97629 8.20433 2.91231 8.20433 2.91231C8.20433 2.91231 8.38374 5.49271 7.78503 5.81283C7.37465 6.03273 6.81163 5.58417 5.60132 3.53212C4.98179 2.48127 4.51393 1.31951 4.51393 1.31951C4.51393 1.31951 4.42372 1.10253 4.26215 0.985771C4.06688 0.844686 3.79428 0.800901 3.79428 0.800901L0.898861 0.819388C0.898861 0.819388 0.463705 0.831064 0.304115 1.01691C0.162367 1.18134 0.293211 1.52287 0.293211 1.52287C0.293211 1.52287 2.56019 6.7294 5.12751 9.35358C7.48171 11.7588 10.1541 11.6012 10.1541 11.6012H11.3654Z" fill="#F5FDFF"/>
</svg>
