<svg width="31" height="36" fill="none" xmlns="http://www.w3.org/2000/svg">
  <path fill-rule="evenodd" clip-rule="evenodd" d="M22.55 0a8.12 8.12 0 0 0-5.32 2.73c-1.17 1.35-2.19 3.5-1.91 5.57 2.02.16 4.1-1.03 5.35-2.55A7.92 7.92 0 0 0 22.55 0zm-.5 35.95c2.45-.04 4.01-2.22 5.52-4.42a19.82 19.82 0 0 0 2.49-5.08l.01-.04a7.94 7.94 0 0 1-4.85-7.28c-.04-4.4 3.49-6.6 3.87-6.84.02 0 .03-.01.03-.02a8.45 8.45 0 0 0-6.6-3.56c-1.72-.17-3.4.48-4.76 1.02-.86.34-1.6.63-2.16.63-.62 0-1.38-.3-2.24-.64-1.12-.45-2.4-.95-3.72-.93a8.84 8.84 0 0 0-7.48 4.51c-3.18 5.51-.81 13.68 2.3 18.14 1.51 2.19 3.32 4.65 5.7 4.56a6.9 6.9 0 0 0 2.6-.7c.9-.38 1.83-.78 3.32-.78 1.41 0 2.3.39 3.16.76.83.35 1.62.7 2.8.67z" fill="#fff"/>
</svg>
