<svg width="92" height="22" fill="none" xmlns="http://www.w3.org/2000/svg">
  <path d="M18.08 5.12c3.57 0 6.43 2.39 6.43 5.94 0 3.53-2.86 5.87-6.42 5.87-3.55 0-6.42-2.34-6.42-5.87.01-3.55 2.87-5.94 6.4-5.94zm.02 8.65c1.39 0 2.58-1.03 2.58-2.71 0-1.71-1.2-2.78-2.58-2.78-1.38 0-2.57 1.08-2.57 2.78 0 1.68 1.19 2.71 2.57 2.71z" fill="url(#paint0_linear)"/>
  <path d="M9.64 1.02c.37 0 .66.29.66.66l-.04 10.88c0 .29-.03.56-.07.83-.43 2.22-2.26 3.54-4.98 3.55H4.7l-.13-.01a7.4 7.4 0 0 1-2.35-.7H2.2a7.84 7.84 0 0 1-1.69-1.12.34.34 0 0 1-.05-.45L1.9 12.6c.12-.18.36-.2.51-.07.25.21.56.43.94.64a2.52 2.52 0 0 0 2.3.18c.01-.02.04-.02.05-.03.42-.21.69-.66.73-1.37V4.72c0-.23-.17-.4-.4-.4H4.32a.68.68 0 0 1-.6-.37l-.96-1.98a.66.66 0 0 1 .6-.95h6.28z" fill="url(#paint1_linear)"/>
  <path d="M42.28 12.3c0 .61-.55 1.09-1.62 1.09a6.79 6.79 0 0 1-3.95-1.25.66.66 0 0 0-1 .3l-.7 1.83c-.08.25-.02.54.18.72a8.26 8.26 0 0 0 5.35 1.93c3.62 0 5.59-2.26 5.59-4.89 0-4.95-6.95-4.42-6.95-6.66 0-.63.5-1.11 1.66-1.11 1 0 2.27.18 3.19.67.33.17.74.04.9-.3l.79-1.66a.67.67 0 0 0-.2-.82 7.63 7.63 0 0 0-4.5-1.4c-3.3 0-5.68 1.9-5.68 4.78 0 4.91 6.94 4.56 6.94 6.77z" fill="url(#paint2_linear)"/>
  <path d="M33.75 5.53v-.16h-.65a1 1 0 0 0-.96.74l-1.23 4.53-.01.04c-.16.62-.37 1.66-.37 1.66h-.04s-.22-1.15-.42-1.75L28.63 6.1l-.08-.26a.67.67 0 0 0-.64-.46h-2.8c-.48 0-.8.48-.62.92l4.38 10.03c.02.06.02.14 0 .2l-.18.43c-.4.96-1.2 1.13-1.82 1.13-.24 0-.49-.08-.7-.17a.65.65 0 0 0-.8.24l-.98 1.42a.65.65 0 0 0 .32.98l.55.28a4.88 4.88 0 0 0 6.6-3l3.23-8.69a5.32 5.32 0 0 1-1.34-3.63z" fill="url(#paint3_linear)"/>
  <path d="M48.3 1h2.49c.37 0 .66.3.66.66v4.3c0 .56-.04.95-.04.95h.04c.63-1.12 1.95-1.79 3.44-1.79 2.29 0 4.07 1.06 4.07 4.23V16c0 .37-.29.66-.66.66h-2.48a.65.65 0 0 1-.66-.66v-5.96c0-1.06-.42-1.5-1.26-1.5-1.65 0-2.45 1.3-2.45 3.04V16c0 .37-.3.66-.66.66H48.3a.65.65 0 0 1-.66-.66V1.66c0-.37.3-.66.66-.66z" fill="url(#paint4_linear)"/>
  <path d="M66.91 9.62h.13c.1 0 .2-.09.2-.2 0-.94-.76-1.24-1.6-1.24-.87 0-1.75.3-2.53.72a.66.66 0 0 1-.9-.29l-.74-1.51a.64.64 0 0 1 .26-.86A9.2 9.2 0 0 1 66 5.12c3.12 0 5.06 1.73 5.06 4.6v6.27c0 .37-.3.66-.66.66h-2.16a.65.65 0 0 1-.66-.66v-.02c0-.37.04-.7.04-.7h-.04a4.15 4.15 0 0 1-3.35 1.65c-2.18 0-3.68-1.5-3.68-3.44-.03-3.01 3.56-3.86 6.36-3.86zm-1.57 4.48c1.1 0 1.93-1.08 1.93-1.99v-.05a.26.26 0 0 0-.27-.26h-.09c-1.16 0-2.65.3-2.65 1.32.01.53.38.98 1.08.98z" fill="url(#paint5_linear)"/>
  <path d="M81.57 8.23c-.37.8-.56 1.71-.56 2.68 0 3 2.18 5.91 6.22 5.91a7 7 0 0 0 4.09-1.26c.27-.2.35-.58.18-.88l-.6-1a.64.64 0 0 0-.9-.23 4.76 4.76 0 0 1-2.47.49c-.81 0-2.5-.34-2.5-1.78v-.1h.45c.99 0 2.08-.1 3.08-.4 1.63-.48 2.97-1.46 2.97-3.25 0-.34-.06-.65-.15-.96-.38-1.3-2.15-2.42-4.49-2.42-.83 0-1.58.13-2.26.38a5.3 5.3 0 0 0-3.06 2.82zM85 9.63c0-.07 0-.16.02-.24.13-.91.96-1.86 2.03-1.86.1 0 .18.02.26.03.22.04.37.1.52.2.24.2.36.48.36.79 0 .35-.18.63-.44.84-.55.43-1.55.58-2.38.58h-.1A.26.26 0 0 1 85 9.7v-.06z" fill="url(#paint6_linear)"/>
  <path d="M80.12 7.62c.38-.84.92-1.58 1.58-2.2h.01a5.2 5.2 0 0 0-1.66-.24h-.16c-1.34.06-2.5.92-3.13 2.06a4 4 0 0 0-.31.74h-.04s.04-.33.04-.7V6.03c0-.37-.3-.66-.66-.66h-2.33a.65.65 0 0 0-.66.66V16c0 .37.3.66.66.66h2.48c.37 0 .66-.29.66-.66v-3.83c0-1.72.82-3.29 2.46-3.29h.1c.3.02.56-.18.65-.46l.3-.79z" fill="url(#paint7_linear)"/>
  <defs>
    <linearGradient id="paint0_linear" x1="18.1" y1="16.92" x2="18.1" y2="5.12" gradientUnits="userSpaceOnUse">
      <stop stop-color="#B833E6"/>
      <stop offset=".19" stop-color="#CC2BE3"/>
      <stop offset=".42" stop-color="#DD24E1"/>
      <stop offset=".68" stop-color="#E71FDF"/>
      <stop offset="1" stop-color="#EA1EDF"/>
    </linearGradient>
    <linearGradient id="paint1_linear" x1="5.35" y1="16.95" x2="5.35" y2="1.02" gradientUnits="userSpaceOnUse">
      <stop stop-color="#B833E6"/>
      <stop offset=".19" stop-color="#CC2BE3"/>
      <stop offset=".42" stop-color="#DD24E1"/>
      <stop offset=".68" stop-color="#E71FDF"/>
      <stop offset="1" stop-color="#EA1EDF"/>
    </linearGradient>
    <linearGradient id="paint2_linear" x1="40.55" y1="16.92" x2="40.55" y2=".74" gradientUnits="userSpaceOnUse">
      <stop stop-color="#0082AE"/>
      <stop offset="1" stop-color="#00C7CC"/>
    </linearGradient>
    <linearGradient id="paint3_linear" x1="29.68" y1="21.25" x2="29.68" y2="5.38" gradientUnits="userSpaceOnUse">
      <stop stop-color="#B833E6"/>
      <stop offset=".19" stop-color="#CC2BE3"/>
      <stop offset=".42" stop-color="#DD24E1"/>
      <stop offset=".68" stop-color="#E71FDF"/>
      <stop offset="1" stop-color="#EA1EDF"/>
    </linearGradient>
    <linearGradient id="paint4_linear" x1="53.31" y1="16.66" x2="53.31" y2="1" gradientUnits="userSpaceOnUse">
      <stop stop-color="#0082AE"/>
      <stop offset="1" stop-color="#00C7CC"/>
    </linearGradient>
    <linearGradient id="paint5_linear" x1="65.77" y1="16.92" x2="65.77" y2="5.12" gradientUnits="userSpaceOnUse">
      <stop stop-color="#0082AE"/>
      <stop offset="1" stop-color="#00C7CC"/>
    </linearGradient>
    <linearGradient id="paint6_linear" x1="86.31" y1="16.82" x2="86.31" y2="5.02" gradientUnits="userSpaceOnUse">
      <stop stop-color="#0082AE"/>
      <stop offset="1" stop-color="#00C7CC"/>
    </linearGradient>
    <linearGradient id="paint7_linear" x1="77.26" y1="16.66" x2="77.26" y2="5.18" gradientUnits="userSpaceOnUse">
      <stop stop-color="#0082AE"/>
      <stop offset="1" stop-color="#00C7CC"/>
    </linearGradient>
  </defs>
</svg>
